<svg id="a2d69f09-f499-4a4a-a363-6e8c1973bf54" data-name="Warstwa 1" xmlns="http://www.w3.org/2000/svg" viewBox="0 0 663.01 412.68"><g id="f367de30-5cc1-4f75-a54f-ac55feb42407" data-name="paths"><polyline points="634.29 318.12 656.59 330.99 566.09 383.2 452.96 317.93 385.09 357.1 339.84 330.99 317.52 343.57" fill="none" stroke="#28ff28" stroke-miterlimit="10" stroke-width="1.83"/><polyline points="375.05 115.59 328.59 141.74 362.46 161.28 317.52 187.21 385.09 226.96 328.52 259.19" fill="none" stroke="#28ff28" stroke-miterlimit="10" stroke-width="1.83"/><polyline points="124.9 155.59 79.65 180.86 136.21 213.5 68.33 252.66 200.7 329.03" fill="none" stroke="#28ff28" stroke-miterlimit="10" stroke-width="1.83"/><polyline points="90.96 265.71 68.33 278.77 23.08 252.66 0.46 265.71" fill="none" stroke="#28ff28" stroke-miterlimit="10" stroke-width="1.83"/><polyline points="430.34 330.99 407.71 317.99 430.52 304.98 407.71 291.82" fill="none" stroke="#28ff28" stroke-miterlimit="10" stroke-width="1.83"/><line x1="362.46" y1="213.65" x2="407.71" y2="187.39" fill="none" stroke="#28ff28" stroke-miterlimit="10" stroke-width="1.83"/><line x1="407.44" y1="213.65" x2="385.22" y2="200.52" fill="none" stroke="#28ff28" stroke-miterlimit="10" stroke-width="1.83"/><polyline points="102.64 168.02 68.33 148.23 45.71 161.28 23.08 148.23" fill="none" stroke="#28ff28" stroke-miterlimit="10" stroke-width="1.83"/><polyline points="32.63 153.74 55.39 140.76 45.71 135.17 57.02 128.64" fill="none" stroke="#28ff28" stroke-miterlimit="10" stroke-width="1.83"/><polyline points="339.84 174.91 317.52 161.1 294.59 174.33 271.65 161.1" fill="none" stroke="#28ff28" stroke-miterlimit="10" stroke-width="1.83"/><polyline points="520.84 357.1 498.21 370.15 520.84 383.2 498.21 396.26" fill="none" stroke="#28ff28" stroke-miterlimit="10" stroke-width="1.83"/></g><g id="a188fbf2-bb60-4648-b755-078e5670c0ff" data-name="phone"><polygon points="95.84 140.4 157.38 175.91 288.15 100.45 226.61 64.95 95.84 140.4" fill="#d1fffd"/><polygon points="95.84 131.56 157.38 167.07 288.15 91.61 226.61 56.11 95.84 131.56" fill="#edf9f8"/><polygon points="95.84 131.56 95.84 140.4 157.38 175.91 157.38 167.07 95.84 131.56" fill="#c7d8d6"/><polygon points="157.38 167.07 288.15 91.61 288.15 100.45 157.38 175.91 157.38 167.07" fill="#d1dbd9"/><polygon points="100.7 131.04 158.22 164.23 280.46 93.7 222.94 60.51 100.7 131.04" fill="#fff"/><path d="M669.93,331.13v1.3a.55.55,0,0,0,.27.48L687,342.62a.55.55,0,0,0,.83-.47v-1.3a.56.56,0,0,0-.28-.48l-16.83-9.71A.55.55,0,0,0,669.93,331.13Z" transform="translate(-552.29 -182.91)" fill="#a3aaa9"/><ellipse cx="253.93" cy="75.04" rx="2.8" ry="1.62" fill="#e9f0e6"/><path d="M767.05,259c-9-5.22-23.86-5.2-32.93,0s-9.08,13.77,0,19,23.9,5.18,32.93,0S776.09,264.17,767.05,259Z" transform="translate(-552.29 -182.91)" fill="none" stroke="#28ff28" stroke-miterlimit="10" stroke-width="2.18"/><polyline points="191.44 80.81 190.12 90.25 217.64 85.15" fill="none" stroke="#28ff28" stroke-miterlimit="10" stroke-width="1.65"/><polygon points="100.7 110.64 158.22 143.83 280.46 73.3 222.94 40.11 100.7 110.64" fill="lime" opacity="0.2"/></g><g id="b270eb0d-d944-4256-bbca-59ac7dae5223" data-name="laptop"><polygon points="448.8 262.38 590.56 345.28 661.45 303.83 519.68 220.94 448.8 262.38" fill="#d1dbd9"/><polygon points="448.8 254.45 590.56 337.34 661.45 295.89 519.68 213 448.8 254.45" fill="#e9f5f4"/><polygon points="448.8 254.45 448.8 262.38 590.56 345.28 590.56 337.34 448.8 254.45" fill="#ccdedc"/><polygon points="661.45 303.83 661.45 295.89 590.56 337.34 590.56 345.28 661.45 303.83" fill="#d6e0de"/><polygon points="521.25 126.1 521.25 211.41 663.01 294.31 663.01 208.99 521.25 126.1" fill="#edf9f8"/><polygon points="519.68 127.69 519.68 213 661.45 295.89 661.45 210.58 519.68 127.69" fill="#edf9f8"/><polygon points="526.12 136.76 526.12 212.87 652.59 286.82 652.59 210.71 526.12 136.76" fill="#fff"/><polygon points="661.45 295.89 663.01 294.31 663.01 208.99 661.45 210.58 661.45 295.89" fill="#e4edec"/><polygon points="521.25 126.1 519.68 127.69 661.45 210.58 663.01 208.99 521.25 126.1" fill="#e4edec"/><polygon points="466.26 256.72 584.74 326 643.99 291.36 525.5 222.08 466.26 256.72" fill="#b3bcbb"/><polygon points="514.65 148.44 514.65 224.55 641.12 298.5 641.12 222.38 514.65 148.44" fill="lime" opacity="0.2"/><ellipse cx="1097.21" cy="394.43" rx="7.75" ry="13.42" transform="translate(-602.39 419.19) rotate(-30.03)" fill="none" stroke="#28ff28" stroke-miterlimit="10" stroke-width="1.83"/><polyline points="539.01 210.13 543.21 217.09 550.84 209.16" fill="none" stroke="#28ff28" stroke-miterlimit="10" stroke-width="1.72"/><line x1="575.99" y1="219.25" x2="613.97" y2="241.17" fill="none" stroke="#28ff28" stroke-miterlimit="10" stroke-width="1.72"/><line x1="575.99" y1="227.54" x2="588.27" y2="234.63" fill="none" stroke="#28ff28" stroke-miterlimit="10" stroke-width="1.72"/><line x1="593.3" y1="237.66" x2="597.92" y2="240.33" fill="none" stroke="#28ff28" stroke-miterlimit="10" stroke-width="1.72"/><polygon points="645.8 311.46 657.74 304.58 657.74 300.5 645.8 307.69 645.8 311.46" fill="#a3aaa9"/><polygon points="637.72 315.14 643.22 311.97 643.22 309.66 637.72 312.78 637.72 315.14" fill="#a3aaa9"/><polygon points="630.78 318.99 636.29 315.82 636.29 313.51 630.78 316.63 630.78 318.99" fill="#a3aaa9"/></g><g id="a6ad99e0-154c-40ac-b1ec-0a0991c5d968" data-name="phone"><polygon points="345.81 100.29 407.35 135.8 538.12 60.35 476.58 24.84 345.81 100.29" fill="#d1fffd"/><polygon points="345.81 91.45 407.35 126.96 538.12 51.51 476.58 16 345.81 91.45" fill="#edf9f8"/><polygon points="345.81 91.45 345.81 100.29 407.35 135.8 407.35 126.96 345.81 91.45" fill="#c7d8d6"/><polygon points="407.35 126.96 538.12 51.51 538.12 60.35 407.35 135.8 407.35 126.96" fill="#d1dbd9"/><polygon points="350.66 90.93 408.19 124.12 530.43 53.59 472.9 20.4 350.66 90.93" fill="#fff"/><path d="M919.89,291v1.3a.54.54,0,0,0,.28.47L937,302.52a.56.56,0,0,0,.83-.48v-1.3a.55.55,0,0,0-.27-.48l-16.84-9.71A.55.55,0,0,0,919.89,291Z" transform="translate(-552.29 -182.91)" fill="#a3aaa9"/><ellipse cx="503.9" cy="34.93" rx="2.8" ry="1.62" fill="#e9f0e6"/><path d="M1017,218.85c-9-5.22-23.86-5.2-32.94,0s-9.07,13.77,0,19,23.9,5.18,32.94,0S1026.06,224.06,1017,218.85Z" transform="translate(-552.29 -182.91)" fill="none" stroke="#28ff28" stroke-miterlimit="10" stroke-width="2.18"/><polyline points="441.41 40.7 440.08 50.15 467.6 45.04" fill="none" stroke="#28ff28" stroke-miterlimit="10" stroke-width="1.65"/><polygon points="350.66 70.53 408.19 103.72 530.43 33.19 472.9 0 350.66 70.53" fill="lime" opacity="0.2"/></g><g id="a8e2548d-bd5d-481a-8a7e-fe9a17681776" data-name="server"><polygon points="198.19 356.89 198.19 375.22 263.11 412.68 263.11 394.35 198.19 356.89" fill="#565555"/><polygon points="328.03 375.22 328.03 356.89 263.11 394.35 263.11 412.68 328.03 375.22" fill="#595959"/><polygon points="263.06 262.93 263.11 394.35 198.19 356.89 198.14 225.47 263.06 262.93" fill="#7f7f7f"/><polygon points="328.03 356.89 263.11 394.35 263.06 262.93 327.99 225.47 328.03 356.89" fill="#757575"/><polygon points="198.14 225.47 263.06 188.01 327.99 225.47 263.06 262.93 198.14 225.47" fill="#7f7f7f"/><polygon points="198.11 254.89 198.11 262.42 263.04 299.88 263.04 292.35 198.11 254.89" fill="#606060"/><polygon points="327.96 254.89 327.96 262.42 263.04 299.88 263.04 292.35 327.96 254.89" fill="#636363"/><polygon points="327.96 280.71 327.96 288.24 263.04 325.7 263.04 318.17 327.96 280.71" fill="#636363"/><polygon points="198.11 280.71 198.11 288.24 263.04 325.7 263.04 318.17 198.11 280.71" fill="#606060"/><polygon points="198.11 306.54 198.11 314.07 263.04 351.53 263.04 343.99 198.11 306.54" fill="#606060"/><polygon points="327.96 306.54 327.96 314.07 263.04 351.53 263.04 343.99 327.96 306.54" fill="#636363"/><polygon points="263.04 292.35 263.04 299.88 235.87 284.2 235.87 276.67 263.04 292.35" fill="#81a4fc"/><polygon points="235.74 302.43 235.74 309.96 208.57 294.28 208.57 286.75 235.74 302.43" fill="#81a4fc"/><polygon points="241.48 331.48 241.48 339.01 214.31 323.34 214.31 315.8 241.48 331.48" fill="#81a4fc"/><polygon points="208.73 370.77 208.73 376.51 214.99 380.12 214.99 374.38 208.73 370.77" fill="#727272"/><polygon points="218.77 376.51 218.77 382.25 225.04 385.86 225.04 380.12 218.77 376.51" fill="#727272"/><ellipse cx="804.17" cy="580.93" rx="1.27" ry="2.19" transform="translate(-735.07 297.56) rotate(-30.03)" fill="#81a4fc"/><ellipse cx="797" cy="576.98" rx="1.27" ry="2.19" transform="matrix(0.87, -0.5, 0.5, 0.87, -734.06, 293.44)" fill="#6797f9"/><ellipse cx="789.83" cy="573.04" rx="1.27" ry="2.19" transform="translate(-733.05 289.32) rotate(-30.03)" fill="#6797f9"/><ellipse cx="874.23" cy="552.55" rx="2.87" ry="1.66" transform="translate(-593.96 849.96) rotate(-59.97)" fill="#494949"/><ellipse cx="867.78" cy="556.13" rx="2.87" ry="1.66" transform="translate(-600.29 846.17) rotate(-59.97)" fill="#666"/><ellipse cx="860.96" cy="560.08" rx="2.87" ry="1.66" transform="translate(-607.11 842.24) rotate(-59.97)" fill="#494949"/><polygon points="292.61 344.35 292.61 361.02 293.96 360.07 293.96 343.57 292.61 344.35" fill="#636363"/><polygon points="296.2 342.56 296.2 359.23 297.55 358.28 297.55 341.78 296.2 342.56" fill="#636363"/><polygon points="299.79 340.41 299.79 357.08 301.14 356.13 301.14 339.63 299.79 340.41" fill="#636363"/><polygon points="303.37 338.25 303.37 354.92 304.72 353.98 304.72 337.48 303.37 338.25" fill="#636363"/></g></svg>