<svg id="f83e1c38-de69-418c-812d-268ec8ba0a15" data-name="a2d69f09-f499-4a4a-a363-6e8c1973bf54" xmlns="http://www.w3.org/2000/svg" viewBox="0 0 663.3 412.68">
    <g id="ad1d734f-0833-4c2d-8049-fa52f9b12d93" data-name="f367de30-5cc1-4f75-a54f-ac55feb42407">
        <polyline points="634.58 318.12 656.88 330.99 566.38 383.2 453.25 317.93 385.38 357.1 340.13 330.99 317.81 343.57" fill="none" stroke="#ff90fa" stroke-miterlimit="10" stroke-width="3" />
        <polyline points="375.34 115.59 328.88 141.74 362.75 161.28 317.81 187.21 385.38 226.96 328.81 259.19" fill="none" stroke="#ff90fa" stroke-miterlimit="10" stroke-width="3" />
        <polyline points="125.19 155.59 79.94 180.86 136.5 213.5 68.62 252.66 200.99 329.03" fill="none" stroke="#ff90fa" stroke-miterlimit="10" stroke-width="3" />
        <polyline points="91.25 265.71 68.62 278.77 23.37 252.66 0.75 265.71" fill="none" stroke="#ff90fa" stroke-miterlimit="10" stroke-width="3" />
        <polyline points="430.63 330.99 408 317.99 430.81 304.98 408 291.82" fill="none" stroke="#ff90fa" stroke-miterlimit="10" stroke-width="3" />
        <line x1="362.75" y1="213.65" x2="408" y2="187.39" fill="none" stroke="#ff90fa" stroke-miterlimit="10" stroke-width="3" />
        <line x1="407.73" y1="213.65" x2="385.51" y2="200.52" fill="none" stroke="#ff90fa" stroke-miterlimit="10" stroke-width="3" />
        <polyline points="102.93 168.02 68.62 148.23 46 161.28 23.37 148.23" fill="none" stroke="#ff90fa" stroke-miterlimit="10" stroke-width="3" />
        <polyline points="32.92 153.74 55.68 140.76 46 135.17 57.31 128.64" fill="none" stroke="#ff90fa" stroke-miterlimit="10" stroke-width="3" />
        <polyline points="340.13 174.91 317.81 161.1 294.88 174.33 271.94 161.1" fill="none" stroke="#ff90fa" stroke-miterlimit="10" stroke-width="3" />
        <polyline points="521.13 357.1 498.5 370.15 521.13 383.2 498.5 396.26" fill="none" stroke="#ff90fa" stroke-miterlimit="10" stroke-width="3" />
    </g>
    <g id="b86fb217-0d98-4c42-9cd2-6322146109ef" data-name="a188fbf2-bb60-4648-b755-078e5670c0ff">
        <polygon points="96.13 140.4 157.67 175.91 288.44 100.45 226.9 64.95 96.13 140.4" fill="#d1fffd" />
        <polygon points="96.13 131.56 157.67 167.07 288.44 91.61 226.9 56.11 96.13 131.56" fill="#edf9f8" />
        <polygon points="96.13 131.56 96.13 140.4 157.67 175.91 157.67 167.07 96.13 131.56" fill="#c7d8d6" />
        <polygon points="157.67 167.07 288.44 91.61 288.44 100.45 157.67 175.91 157.67 167.07" fill="#d1dbd9" />
        <polygon points="100.99 131.04 158.51 164.23 280.75 93.7 223.23 60.51 100.99 131.04" fill="#fff" />
        <path d="M117.64,148.22v1.3a.55.55,0,0,0,.27.48l16.8,9.71a.55.55,0,0,0,.75-.19.57.57,0,0,0,.08-.28v-1.3a.56.56,0,0,0-.28-.48l-16.83-9.71a.56.56,0,0,0-.74.25A.59.59,0,0,0,117.64,148.22Z" transform="translate(0.29)" fill="#a3aaa9" />
        <ellipse cx="254.22" cy="75.04" rx="2.8" ry="1.62" fill="#e9f0e6" />
        <path d="M214.76,76.09c-9-5.22-23.86-5.2-32.93,0s-9.08,13.77,0,19,23.9,5.18,32.93,0S223.8,81.26,214.76,76.09Z" transform="translate(0.29)" fill="none" stroke="#28ff28" stroke-miterlimit="10" stroke-width="2.18" />
        <polyline points="191.73 80.81 190.41 90.25 217.93 85.15" fill="none" stroke="#28ff28" stroke-miterlimit="10" stroke-width="1.65" />
        <polygon points="100.99 110.64 158.51 143.83 280.75 73.3 223.23 40.11 100.99 110.64" fill="lime" opacity="0.2" style="isolation:isolate" />
    </g>
    <g id="eea707ad-5d22-4b55-accb-0a7f95395064" data-name="b270eb0d-d944-4256-bbca-59ac7dae5223">
        <polygon points="449.09 262.38 590.85 345.28 661.74 303.83 519.97 220.94 449.09 262.38" fill="#d1dbd9" />
        <polygon points="449.09 254.45 590.85 337.34 661.74 295.89 519.97 213 449.09 254.45" fill="#e9f5f4" />
        <polygon points="449.09 254.45 449.09 262.38 590.85 345.28 590.85 337.34 449.09 254.45" fill="#ccdedc" />
        <polygon points="661.74 303.83 661.74 295.89 590.85 337.34 590.85 345.28 661.74 303.83" fill="#d6e0de" />
        <polygon points="521.54 126.1 521.54 211.41 663.3 294.31 663.3 208.99 521.54 126.1" fill="#edf9f8" />
        <polygon points="519.97 127.69 519.97 213 661.74 295.89 661.74 210.58 519.97 127.69" fill="#edf9f8" />
        <polygon points="526.41 136.76 526.41 212.87 652.88 286.82 652.88 210.71 526.41 136.76" fill="#fff" />
        <polygon points="661.74 295.89 663.3 294.31 663.3 208.99 661.74 210.58 661.74 295.89" fill="#e4edec" />
        <polygon points="521.54 126.1 519.97 127.69 661.74 210.58 663.3 208.99 521.54 126.1" fill="#e4edec" />
        <polygon points="466.55 256.72 585.03 326 644.28 291.36 525.79 222.08 466.55 256.72" fill="#b3bcbb" />
        <polygon points="514.94 148.44 514.94 224.55 641.41 298.5 641.41 222.38 514.94 148.44" fill="lime" opacity="0.2" style="isolation:isolate" />
        <ellipse cx="544.93" cy="211.57" rx="7.75" ry="13.42" transform="translate(-32.44 301.11) rotate(-30.03)" fill="none" stroke="#28ff28" stroke-miterlimit="10" stroke-width="1.83" />
        <polyline points="539.3 210.13 543.5 217.09 551.13 209.16" fill="none" stroke="#28ff28" stroke-miterlimit="10" stroke-width="1.72" />
        <line x1="576.28" y1="219.25" x2="614.26" y2="241.17" fill="none" stroke="#28ff28" stroke-miterlimit="10" stroke-width="1.72" />
        <line x1="576.28" y1="227.54" x2="588.56" y2="234.63" fill="none" stroke="#28ff28" stroke-miterlimit="10" stroke-width="1.72" />
        <line x1="593.59" y1="237.66" x2="598.21" y2="240.33" fill="none" stroke="#28ff28" stroke-miterlimit="10" stroke-width="1.72" />
        <polygon points="646.09 311.46 658.03 304.58 658.03 300.5 646.09 307.69 646.09 311.46" fill="#a3aaa9" />
        <polygon points="638.01 315.14 643.51 311.97 643.51 309.66 638.01 312.78 638.01 315.14" fill="#a3aaa9" />
        <polygon points="631.07 318.99 636.58 315.82 636.58 313.51 631.07 316.63 631.07 318.99" fill="#a3aaa9" />
    </g>
    <g id="b134c1e4-e319-430b-a6a7-9377d7bba034" data-name="a6ad99e0-154c-40ac-b1ec-0a0991c5d968">
        <polygon points="346.1 100.29 407.64 135.8 538.41 60.35 476.87 24.84 346.1 100.29" fill="#d1fffd" />
        <polygon points="346.1 91.45 407.64 126.96 538.41 51.51 476.87 16 346.1 91.45" fill="#edf9f8" />
        <polygon points="346.1 91.45 346.1 100.29 407.64 135.8 407.64 126.96 346.1 91.45" fill="#c7d8d6" />
        <polygon points="407.64 126.96 538.41 51.51 538.41 60.35 407.64 135.8 407.64 126.96" fill="#d1dbd9" />
        <polygon points="350.95 90.93 408.48 124.12 530.72 53.59 473.19 20.4 350.95 90.93" fill="#fff" />
        <path d="M367.6,108.09v1.3a.53.53,0,0,0,.28.47l16.83,9.75a.56.56,0,0,0,.76-.22.59.59,0,0,0,.07-.26v-1.3a.55.55,0,0,0-.27-.48l-16.84-9.71a.55.55,0,0,0-.75.19A.5.5,0,0,0,367.6,108.09Z" transform="translate(0.29)" fill="#a3aaa9" />
        <ellipse cx="504.19" cy="34.93" rx="2.8" ry="1.62" fill="#e9f0e6" />
        <path d="M464.71,35.94c-9-5.22-23.86-5.2-32.94,0s-9.07,13.77,0,19,23.9,5.18,32.94,0S473.77,41.15,464.71,35.94Z" transform="translate(0.29)" fill="none" stroke="#28ff28" stroke-miterlimit="10" stroke-width="2.18" />
        <polyline points="441.7 40.7 440.37 50.15 467.89 45.04" fill="none" stroke="#28ff28" stroke-miterlimit="10" stroke-width="1.65" />
        <polygon points="350.95 70.53 408.48 103.72 530.72 33.19 473.19 0 350.95 70.53" fill="lime" opacity="0.2" style="isolation:isolate" />
    </g>
    <g id="fcbc066f-a228-4b0b-ab31-bd19db2c059b" data-name="a8e2548d-bd5d-481a-8a7e-fe9a17681776">
        <polygon points="198.48 356.89 198.48 375.22 263.4 412.68 263.4 394.35 198.48 356.89" fill="#565555" />
        <polygon points="328.32 375.22 328.32 356.89 263.4 394.35 263.4 412.68 328.32 375.22" fill="#595959" />
        <polygon points="263.35 262.93 263.4 394.35 198.48 356.89 198.43 225.47 263.35 262.93" fill="#7f7f7f" />
        <polygon points="328.32 356.89 263.4 394.35 263.35 262.93 328.28 225.47 328.32 356.89" fill="#757575" />
        <polygon points="198.43 225.47 263.35 188.01 328.28 225.47 263.35 262.93 198.43 225.47" fill="#7f7f7f" />
        <polygon points="198.4 254.89 198.4 262.42 263.33 299.88 263.33 292.35 198.4 254.89" fill="#606060" />
        <polygon points="328.25 254.89 328.25 262.42 263.33 299.88 263.33 292.35 328.25 254.89" fill="#636363" />
        <polygon points="328.25 280.71 328.25 288.24 263.33 325.7 263.33 318.17 328.25 280.71" fill="#636363" />
        <polygon points="198.4 280.71 198.4 288.24 263.33 325.7 263.33 318.17 198.4 280.71" fill="#606060" />
        <polygon points="198.4 306.54 198.4 314.07 263.33 351.53 263.33 343.99 198.4 306.54" fill="#606060" />
        <polygon points="328.25 306.54 328.25 314.07 263.33 351.53 263.33 343.99 328.25 306.54" fill="#636363" />
        <polygon points="263.33 292.35 263.33 299.88 236.16 284.2 236.16 276.67 263.33 292.35" fill="#81a4fc" />
        <polygon points="236.03 302.43 236.03 309.96 208.86 294.28 208.86 286.75 236.03 302.43" fill="#81a4fc" />
        <polygon points="241.77 331.48 241.77 339.01 214.6 323.34 214.6 315.8 241.77 331.48" fill="#81a4fc" />
        <polygon points="209.02 370.77 209.02 376.51 215.28 380.12 215.28 374.38 209.02 370.77" fill="#727272" />
        <polygon points="219.06 376.51 219.06 382.25 225.33 385.86 225.33 380.12 219.06 376.51" fill="#727272" />
        <ellipse cx="251.88" cy="398.06" rx="1.27" ry="2.19" transform="translate(-165.11 179.49) rotate(-30.03)" fill="#81a4fc" />
        <ellipse cx="244.22" cy="394.17" rx="1.27" ry="2.2" transform="translate(-163.64 174.11) rotate(-29.89)" fill="#6797f9" />
        <ellipse cx="237.54" cy="390.16" rx="1.27" ry="2.19" transform="translate(-163.08 171.25) rotate(-30.03)" fill="#6797f9" />
        <ellipse cx="321.93" cy="369.61" rx="2.87" ry="1.66" transform="matrix(0.5, -0.87, 0.87, 0.5, -158.89, 463.35)" fill="#494949" />
        <ellipse cx="315.47" cy="373.19" rx="2.87" ry="1.66" transform="matrix(0.5, -0.87, 0.87, 0.5, -165.22, 459.55)" fill="#666" />
        <ellipse cx="308.66" cy="377.15" rx="2.87" ry="1.66" transform="matrix(0.5, -0.87, 0.87, 0.5, -172.04, 455.63)" fill="#494949" />
        <polygon points="292.9 344.35 292.9 361.02 294.25 360.07 294.25 343.57 292.9 344.35" fill="#636363" />
        <polygon points="296.49 342.56 296.49 359.23 297.84 358.28 297.84 341.78 296.49 342.56" fill="#636363" />
        <polygon points="300.08 340.41 300.08 357.08 301.43 356.13 301.43 339.63 300.08 340.41" fill="#636363" />
        <polygon points="303.66 338.25 303.66 354.92 305.01 353.98 305.01 337.48 303.66 338.25" fill="#636363" />
    </g>
</svg>