<svg id="ebe597c1-f5b1-4775-b802-a10d17ea67d7" data-name="Warstwa 1" xmlns="http://www.w3.org/2000/svg" viewBox="0 0 197.08 166.69"><polygon points="110.83 13.18 133.66 0 156.49 13.18 133.66 26.35 110.83 13.18" fill="#0041f9"/><polygon points="156.49 13.18 133.66 26.35 133.66 52.7 156.49 39.52 156.49 13.18" fill="#0034f2"/><polygon points="110.83 13.18 110.83 39.52 133.66 52.7 133.66 26.35 110.83 13.18" fill="#0034f2"/><polygon points="74.48 18.37 97.32 5.2 120.15 18.37 97.32 31.55 74.48 18.37" fill="#0041f9"/><polygon points="120.15 18.37 97.32 31.55 97.32 57.9 120.15 44.72 120.15 18.37" fill="#0034f2"/><polygon points="74.48 18.37 74.48 44.72 97.32 57.9 97.32 31.55 74.48 18.37" fill="#0034f2"/><polygon points="133.66 26.35 156.49 13.18 179.33 26.35 156.49 39.52 133.66 26.35" fill="#0041f9"/><polygon points="179.33 26.35 156.49 39.52 156.49 65.87 179.33 52.7 179.33 26.35" fill="#0034f2"/><polygon points="133.66 26.35 133.66 52.7 156.49 65.87 156.49 39.52 133.66 26.35" fill="#0034f2"/><polygon points="142.99 46.11 165.82 32.94 188.65 46.11 165.82 59.29 142.99 46.11" fill="#0041f9"/><polygon points="188.65 46.11 165.82 59.29 165.82 85.64 188.65 72.46 188.65 46.11" fill="#0034f2"/><polygon points="142.99 46.11 142.99 72.46 165.82 85.64 165.82 59.29 142.99 46.11" fill="#0034f2"/><polygon points="151.41 65.87 174.25 52.7 197.08 65.87 174.25 79.05 151.41 65.87" fill="#0041f9"/><polygon points="197.08 65.87 174.25 79.05 174.25 105.4 197.08 92.22 197.08 65.87" fill="#0037d3"/><polygon points="151.41 65.87 151.41 92.22 174.25 105.4 174.25 79.05 151.41 65.87" fill="#0034f2"/><polygon points="128.58 79.05 151.41 65.87 174.25 79.05 151.41 92.22 128.58 79.05" fill="#0041f9"/><polygon points="174.25 79.05 151.41 92.22 151.41 118.57 174.25 105.4 174.25 79.05" fill="#0037d3"/><polygon points="128.58 79.05 128.58 105.4 151.41 118.57 151.41 92.22 128.58 79.05" fill="#0034f2"/><polygon points="97.32 86.86 120.15 73.69 142.99 86.86 120.15 100.04 97.32 86.86" fill="#0041f9"/><polygon points="142.99 86.86 120.15 100.04 120.15 126.39 142.99 113.21 142.99 86.86" fill="#0037d3"/><polygon points="97.32 86.86 97.32 113.21 120.15 126.39 120.15 100.04 97.32 86.86" fill="#0034f2"/><polygon points="59.33 90.83 82.16 77.66 105 90.83 82.16 104.01 59.33 90.83" fill="#0041f9"/><polygon points="105 90.83 82.16 104.01 82.16 130.36 105 117.18 105 90.83" fill="#0037d3"/><polygon points="59.33 90.83 59.33 117.18 82.16 130.36 82.16 104.01 59.33 90.83" fill="#0034f2"/><polygon points="36.5 104.01 59.33 90.83 82.16 104.01 59.33 117.18 36.5 104.01" fill="#0041f9"/><polygon points="82.16 104.01 59.33 117.18 59.33 143.53 82.16 130.36 82.16 104.01" fill="#0037d3"/><polygon points="36.5 104.01 36.5 130.36 59.33 143.53 59.33 117.18 36.5 104.01" fill="#0034f2"/><polygon points="0 127.16 22.83 113.99 45.67 127.16 22.83 140.34 0 127.16" fill="#0041f9"/><polygon points="45.67 127.16 22.83 140.34 22.83 166.69 45.67 153.51 45.67 127.16" fill="#0037d3"/><polygon points="0 127.16 0 153.51 22.83 166.69 22.83 140.34 0 127.16" fill="#0034f2"/></svg>