<svg id="f7017b0f-d6cc-4040-b747-5716d987d43a" data-name="Warstwa 1" xmlns="http://www.w3.org/2000/svg" viewBox="0 0 163.1 223.01"><polygon points="151.41 212.9 157.25 209.52 163.1 212.9 157.25 216.27 151.41 212.9" fill="#0041f9"/><polygon points="163.1 212.9 157.25 216.27 157.25 223.01 163.1 219.64 163.1 212.9" fill="#0037d3"/><polygon points="151.41 212.9 151.41 219.64 157.25 223.01 157.25 216.27 151.41 212.9" fill="#0034f2"/><polygon points="0 123.87 5.84 120.5 11.69 123.87 5.84 127.24 0 123.87" fill="#0041f9"/><polygon points="11.69 123.87 5.84 127.24 5.84 133.98 11.69 130.61 11.69 123.87" fill="#0037d3"/><polygon points="0 123.87 0 130.61 5.84 133.98 5.84 127.24 0 123.87" fill="#0034f2"/><polygon points="8.77 112.08 14.61 108.71 20.45 112.08 14.61 115.46 8.77 112.08" fill="#0041f9"/><polygon points="20.45 112.08 14.61 115.46 14.61 122.2 20.45 118.83 20.45 112.08" fill="#0037d3"/><polygon points="8.77 112.08 8.77 118.83 14.61 122.2 14.61 115.46 8.77 112.08" fill="#0034f2"/><polygon points="74.48 8.28 88.83 0 103.18 8.28 88.83 16.56 74.48 8.28" fill="#0041f9"/><polygon points="103.18 8.28 88.83 16.56 88.83 33.11 103.18 24.84 103.18 8.28" fill="#0037d3"/><polygon points="74.48 8.28 74.48 24.84 88.83 33.11 88.83 16.56 74.48 8.28" fill="#0034f2"/></svg>