<svg id="ab32a2ff-9a41-4e0d-99eb-085b45af2c34" data-name="Warstwa 1" xmlns="http://www.w3.org/2000/svg" viewBox="0 0 197.08 223.01"><polygon points="110.83 62.76 133.66 49.58 156.49 62.76 133.66 75.93 110.83 62.76" fill="#0041f9"/><polygon points="156.49 62.76 133.66 75.93 133.66 102.28 156.49 89.11 156.49 62.76" fill="#0034f2"/><polygon points="110.83 62.76 110.83 89.11 133.66 102.28 133.66 75.93 110.83 62.76" fill="#0034f2"/><polygon points="74.48 67.95 97.32 54.78 120.15 67.95 97.32 81.13 74.48 67.95" fill="#0041f9"/><polygon points="120.15 67.95 97.32 81.13 97.32 107.48 120.15 94.3 120.15 67.95" fill="#0034f2"/><polygon points="74.48 67.95 74.48 94.3 97.32 107.48 97.32 81.13 74.48 67.95" fill="#0034f2"/><polygon points="133.66 75.93 156.49 62.76 179.33 75.93 156.49 89.11 133.66 75.93" fill="#0041f9"/><polygon points="179.33 75.93 156.49 89.11 156.49 115.46 179.33 102.28 179.33 75.93" fill="#0034f2"/><polygon points="133.66 75.93 133.66 102.28 156.49 115.46 156.49 89.11 133.66 75.93" fill="#0034f2"/><polygon points="142.99 95.69 165.82 82.52 188.65 95.69 165.82 108.87 142.99 95.69" fill="#0041f9"/><polygon points="188.65 95.69 165.82 108.87 165.82 135.22 188.65 122.04 188.65 95.69" fill="#0034f2"/><polygon points="142.99 95.69 142.99 122.04 165.82 135.22 165.82 108.87 142.99 95.69" fill="#0034f2"/><polygon points="151.41 115.46 174.25 102.28 197.08 115.46 174.25 128.63 151.41 115.46" fill="#0041f9"/><polygon points="197.08 115.46 174.25 128.63 174.25 154.98 197.08 141.81 197.08 115.46" fill="#0037d3"/><polygon points="151.41 115.46 151.41 141.81 174.25 154.98 174.25 128.63 151.41 115.46" fill="#0034f2"/><polygon points="128.58 128.63 151.41 115.46 174.25 128.63 151.41 141.81 128.58 128.63" fill="#0041f9"/><polygon points="174.25 128.63 151.41 141.81 151.41 168.16 174.25 154.98 174.25 128.63" fill="#0037d3"/><polygon points="128.58 128.63 128.58 154.98 151.41 168.16 151.41 141.81 128.58 128.63" fill="#0034f2"/><polygon points="97.32 136.44 120.15 123.27 142.99 136.44 120.15 149.62 97.32 136.44" fill="#0041f9"/><polygon points="142.99 136.44 120.15 149.62 120.15 175.97 142.99 162.79 142.99 136.44" fill="#0037d3"/><polygon points="97.32 136.44 97.32 162.79 120.15 175.97 120.15 149.62 97.32 136.44" fill="#0034f2"/><polygon points="59.33 140.41 82.16 127.24 105 140.41 82.16 153.59 59.33 140.41" fill="#0041f9"/><polygon points="105 140.41 82.16 153.59 82.16 179.94 105 166.76 105 140.41" fill="#0037d3"/><polygon points="59.33 140.41 59.33 166.76 82.16 179.94 82.16 153.59 59.33 140.41" fill="#0034f2"/><polygon points="36.5 153.59 59.33 140.41 82.16 153.59 59.33 166.76 36.5 153.59" fill="#0041f9"/><polygon points="82.16 153.59 59.33 166.76 59.33 193.11 82.16 179.94 82.16 153.59" fill="#0037d3"/><polygon points="36.5 153.59 36.5 179.94 59.33 193.11 59.33 166.76 36.5 153.59" fill="#0034f2"/><polygon points="0 176.74 22.83 163.57 45.67 176.74 22.83 189.92 0 176.74" fill="#0041f9"/><polygon points="45.67 176.74 22.83 189.92 22.83 216.27 45.67 203.09 45.67 176.74" fill="#0037d3"/><polygon points="0 176.74 0 203.09 22.83 216.27 22.83 189.92 0 176.74" fill="#0034f2"/><polygon points="151.41 212.9 157.25 209.52 163.1 212.9 157.25 216.27 151.41 212.9" fill="#0041f9"/><polygon points="163.1 212.9 157.25 216.27 157.25 223.01 163.1 219.64 163.1 212.9" fill="#0037d3"/><polygon points="151.41 212.9 151.41 219.64 157.25 223.01 157.25 216.27 151.41 212.9" fill="#0034f2"/><polygon points="0 123.87 5.84 120.5 11.69 123.87 5.84 127.24 0 123.87" fill="#0041f9"/><polygon points="11.69 123.87 5.84 127.24 5.84 133.98 11.69 130.61 11.69 123.87" fill="#0037d3"/><polygon points="0 123.87 0 130.61 5.84 133.98 5.84 127.24 0 123.87" fill="#0034f2"/><polygon points="8.77 112.08 14.61 108.71 20.45 112.08 14.61 115.46 8.77 112.08" fill="#0041f9"/><polygon points="20.45 112.08 14.61 115.46 14.61 122.2 20.45 118.83 20.45 112.08" fill="#0037d3"/><polygon points="8.77 112.08 8.77 118.83 14.61 122.2 14.61 115.46 8.77 112.08" fill="#0034f2"/><polygon points="74.48 8.28 88.83 0 103.18 8.28 88.83 16.56 74.48 8.28" fill="#0041f9"/><polygon points="103.18 8.28 88.83 16.56 88.83 33.11 103.18 24.84 103.18 8.28" fill="#0037d3"/><polygon points="74.48 8.28 74.48 24.84 88.83 33.11 88.83 16.56 74.48 8.28" fill="#0034f2"/></svg>